STARTFONT 2.1
FONT -windows-PixelCarnage Monospace-medium-r-normal--14-90-96-96-c-90-ISO10646-1
SIZE 9 96 96
FONTBOUNDINGBOX 9 14 0 -3
COMMENT "Generated by fontforge, http://fontforge.sourceforge.net"
STARTPROPERTIES 8
CAP_HEIGHT 9
POINT_SIZE 90
WEIGHT 10
RESOLUTION 132
RESOLUTION_X 96
RESOLUTION_Y 96
X_HEIGHT 0
QUAD_WIDTH 9
ENDPROPERTIES
CHARS 246
STARTCHAR $10
ENCODING 10
SWIDTH 9000 0
DWIDTH 9 0
BBX 9 14 0 -3
BITMAP
FF80
FF80
FF80
FF80
E180
C080
CC80
CC80
C080
E180
FF80
FF80
FF80
FF80
ENDCHAR
STARTCHAR $11
ENCODING 11
SWIDTH 9000 0
DWIDTH 9 0
BBX 8 9 1 0
BITMAP
1F
07
0D
19
78
CC
CC
CC
78
ENDCHAR
STARTCHAR $12
ENCODING 12
SWIDTH 9000 0
DWIDTH 9 0
BBX 6 9 2 0
BITMAP
78
CC
CC
CC
78
30
FC
30
30
ENDCHAR
STARTCHAR $13
ENCODING 13
SWIDTH 9000 0
DWIDTH 9 0
BBX 8 9 1 0
BITMAP
3E
33
3E
33
30
30
70
F0
E0
ENDCHAR
STARTCHAR $14
ENCODING 14
SWIDTH 9000 0
DWIDTH 9 0
BBX 8 9 1 0
BITMAP
3F
33
3F
33
33
33
77
FF
EE
ENDCHAR
STARTCHAR $15
ENCODING 15
SWIDTH 9000 0
DWIDTH 9 0
BBX 8 11 1 -1
BITMAP
18
18
18
DB
3C
E7
3C
DB
18
18
18
ENDCHAR
STARTCHAR $16
ENCODING 16
SWIDTH 9000 0
DWIDTH 9 0
BBX 7 9 1 0
BITMAP
80
C0
E0
F8
FE
F8
E0
C0
80
ENDCHAR
STARTCHAR $17
ENCODING 17
SWIDTH 9000 0
DWIDTH 9 0
BBX 7 9 1 0
BITMAP
02
06
0E
3E
FE
3E
0E
06
02
ENDCHAR
STARTCHAR $18
ENCODING 18
SWIDTH 9000 0
DWIDTH 9 0
BBX 6 9 1 0
BITMAP
30
78
FC
30
30
30
FC
78
30
ENDCHAR
STARTCHAR $19
ENCODING 19
SWIDTH 9000 0
DWIDTH 9 0
BBX 6 9 1 0
BITMAP
CC
CC
CC
CC
CC
CC
00
CC
CC
ENDCHAR
STARTCHAR $20
ENCODING 20
SWIDTH 9000 0
DWIDTH 9 0
BBX 8 11 1 -1
BITMAP
7F
DB
DB
DB
DB
7B
1B
1B
1B
1B
1B
ENDCHAR
STARTCHAR $21
ENCODING 21
SWIDTH 9000 0
DWIDTH 9 0
BBX 7 12 0 -2
BITMAP
7C
C6
60
38
6C
C6
C6
6C
38
0C
C6
7C
ENDCHAR
STARTCHAR $22
ENCODING 22
SWIDTH 9000 0
DWIDTH 9 0
BBX 7 4 0 -2
BITMAP
FE
FE
FE
FE
ENDCHAR
STARTCHAR $23
ENCODING 23
SWIDTH 9000 0
DWIDTH 9 0
BBX 6 10 1 -1
BITMAP
30
78
FC
30
30
30
FC
78
30
FC
ENDCHAR
STARTCHAR $24
ENCODING 24
SWIDTH 9000 0
DWIDTH 9 0
BBX 6 9 1 0
BITMAP
30
78
FC
30
30
30
30
30
30
ENDCHAR
STARTCHAR $25
ENCODING 25
SWIDTH 9000 0
DWIDTH 9 0
BBX 6 9 1 0
BITMAP
30
30
30
30
30
30
FC
78
30
ENDCHAR
STARTCHAR $26
ENCODING 26
SWIDTH 9000 0
DWIDTH 9 0
BBX 7 7 1 1
BITMAP
10
18
FC
FE
FC
18
10
ENDCHAR
STARTCHAR $27
ENCODING 27
SWIDTH 9000 0
DWIDTH 9 0
BBX 7 7 1 1
BITMAP
10
30
7E
FE
7E
30
10
ENDCHAR
STARTCHAR $28
ENCODING 28
SWIDTH 9000 0
DWIDTH 9 0
BBX 7 4 1 2
BITMAP
C0
C0
C0
FE
ENDCHAR
STARTCHAR $29
ENCODING 29
SWIDTH 9000 0
DWIDTH 9 0
BBX 7 5 0 2
BITMAP
28
6C
FE
6C
28
ENDCHAR
STARTCHAR $30
ENCODING 30
SWIDTH 9000 0
DWIDTH 9 0
BBX 7 12 0 -3
BITMAP
10
10
10
10
38
38
38
7C
7C
7C
FE
FE
ENDCHAR
STARTCHAR $31
ENCODING 31
SWIDTH 9000 0
DWIDTH 9 0
BBX 7 12 0 -1
BITMAP
FE
FE
7C
7C
7C
38
38
38
10
10
10
10
ENDCHAR
STARTCHAR $32
ENCODING 32
SWIDTH 9000 0
DWIDTH 9 0
BBX 1 1 8 -3
BITMAP
00
ENDCHAR
STARTCHAR $33
ENCODING 33
SWIDTH 9000 0
DWIDTH 9 0
BBX 1 9 3 0
BITMAP
80
80
80
80
80
80
00
80
80
ENDCHAR
STARTCHAR $34
ENCODING 34
SWIDTH 9000 0
DWIDTH 9 0
BBX 4 3 2 6
BITMAP
90
90
90
ENDCHAR
STARTCHAR $35
ENCODING 35
SWIDTH 9000 0
DWIDTH 9 0
BBX 8 9 1 0
BITMAP
12
12
7F
24
24
24
FE
48
48
ENDCHAR
STARTCHAR $36
ENCODING 36
SWIDTH 9000 0
DWIDTH 9 0
BBX 5 11 2 -1
BITMAP
20
70
88
80
80
70
08
08
88
70
20
ENDCHAR
STARTCHAR $37
ENCODING 37
SWIDTH 9000 0
DWIDTH 9 0
BBX 6 9 1 0
BITMAP
40
A0
44
08
10
20
48
94
08
ENDCHAR
STARTCHAR $38
ENCODING 38
SWIDTH 9000 0
DWIDTH 9 0
BBX 7 9 1 0
BITMAP
60
90
90
60
60
94
88
88
76
ENDCHAR
STARTCHAR $39
ENCODING 39
SWIDTH 9000 0
DWIDTH 9 0
BBX 1 3 4 6
BITMAP
80
80
80
ENDCHAR
STARTCHAR $40
ENCODING 40
SWIDTH 9000 0
DWIDTH 9 0
BBX 3 11 3 -1
BITMAP
20
40
80
80
80
80
80
80
80
40
20
ENDCHAR
STARTCHAR $41
ENCODING 41
SWIDTH 9000 0
DWIDTH 9 0
BBX 3 11 2 -1
BITMAP
80
40
20
20
20
20
20
20
20
40
80
ENDCHAR
STARTCHAR $42
ENCODING 42
SWIDTH 9000 0
DWIDTH 9 0
BBX 6 5 1 2
BITMAP
48
30
FC
30
48
ENDCHAR
STARTCHAR $43
ENCODING 43
SWIDTH 9000 0
DWIDTH 9 0
BBX 5 5 2 2
BITMAP
20
20
F8
20
20
ENDCHAR
STARTCHAR $44
ENCODING 44
SWIDTH 9000 0
DWIDTH 9 0
BBX 1 3 4 -1
BITMAP
80
80
80
ENDCHAR
STARTCHAR $45
ENCODING 45
SWIDTH 9000 0
DWIDTH 9 0
BBX 6 1 1 4
BITMAP
FC
ENDCHAR
STARTCHAR $46
ENCODING 46
SWIDTH 9000 0
DWIDTH 9 0
BBX 1 2 4 0
BITMAP
80
80
ENDCHAR
STARTCHAR $47
ENCODING 47
SWIDTH 9000 0
DWIDTH 9 0
BBX 6 10 1 -1
BITMAP
04
08
08
10
10
20
20
40
40
80
ENDCHAR
STARTCHAR $48
ENCODING 48
SWIDTH 9000 0
DWIDTH 9 0
BBX 6 9 1 0
BITMAP
78
84
84
84
B4
84
84
84
78
ENDCHAR
STARTCHAR $49
ENCODING 49
SWIDTH 9000 0
DWIDTH 9 0
BBX 5 9 2 0
BITMAP
E0
20
20
20
20
20
20
20
F8
ENDCHAR
STARTCHAR $50
ENCODING 50
SWIDTH 9000 0
DWIDTH 9 0
BBX 6 9 1 0
BITMAP
78
84
04
04
08
10
20
40
FC
ENDCHAR
STARTCHAR $51
ENCODING 51
SWIDTH 9000 0
DWIDTH 9 0
BBX 6 9 1 0
BITMAP
78
84
04
04
38
04
04
84
78
ENDCHAR
STARTCHAR $52
ENCODING 52
SWIDTH 9000 0
DWIDTH 9 0
BBX 7 9 1 0
BITMAP
08
18
28
48
88
FE
08
08
08
ENDCHAR
STARTCHAR $53
ENCODING 53
SWIDTH 9000 0
DWIDTH 9 0
BBX 6 9 1 0
BITMAP
FC
80
80
F8
04
04
04
84
78
ENDCHAR
STARTCHAR $54
ENCODING 54
SWIDTH 9000 0
DWIDTH 9 0
BBX 6 9 1 0
BITMAP
38
40
80
80
F8
84
84
84
78
ENDCHAR
STARTCHAR $55
ENCODING 55
SWIDTH 9000 0
DWIDTH 9 0
BBX 6 9 1 0
BITMAP
FC
04
04
08
08
10
10
20
20
ENDCHAR
STARTCHAR $56
ENCODING 56
SWIDTH 9000 0
DWIDTH 9 0
BBX 6 9 1 0
BITMAP
78
84
84
84
78
84
84
84
78
ENDCHAR
STARTCHAR $57
ENCODING 57
SWIDTH 9000 0
DWIDTH 9 0
BBX 6 9 1 0
BITMAP
78
84
84
84
7C
04
04
84
78
ENDCHAR
STARTCHAR $58
ENCODING 58
SWIDTH 9000 0
DWIDTH 9 0
BBX 1 6 4 0
BITMAP
80
80
00
00
80
80
ENDCHAR
STARTCHAR $59
ENCODING 59
SWIDTH 9000 0
DWIDTH 9 0
BBX 2 7 3 -1
BITMAP
40
40
00
00
40
40
80
ENDCHAR
STARTCHAR $60
ENCODING 60
SWIDTH 9000 0
DWIDTH 9 0
BBX 4 7 2 0
BITMAP
10
20
40
80
40
20
10
ENDCHAR
STARTCHAR $61
ENCODING 61
SWIDTH 9000 0
DWIDTH 9 0
BBX 6 3 1 3
BITMAP
FC
00
FC
ENDCHAR
STARTCHAR $62
ENCODING 62
SWIDTH 9000 0
DWIDTH 9 0
BBX 4 7 2 0
BITMAP
80
40
20
10
20
40
80
ENDCHAR
STARTCHAR $63
ENCODING 63
SWIDTH 9000 0
DWIDTH 9 0
BBX 5 9 2 0
BITMAP
70
88
08
10
20
20
00
20
20
ENDCHAR
STARTCHAR $64
ENCODING 64
SWIDTH 9000 0
DWIDTH 9 0
BBX 6 9 1 -1
BITMAP
78
84
9C
A4
A4
A4
9C
80
7C
ENDCHAR
STARTCHAR $65
ENCODING 65
SWIDTH 9000 0
DWIDTH 9 0
BBX 7 9 1 0
BITMAP
10
28
44
82
FE
82
82
82
82
ENDCHAR
STARTCHAR $66
ENCODING 66
SWIDTH 9000 0
DWIDTH 9 0
BBX 6 9 1 0
BITMAP
F8
84
84
84
F8
84
84
84
F8
ENDCHAR
STARTCHAR $67
ENCODING 67
SWIDTH 9000 0
DWIDTH 9 0
BBX 6 9 1 0
BITMAP
78
84
80
80
80
80
80
84
78
ENDCHAR
STARTCHAR $68
ENCODING 68
SWIDTH 9000 0
DWIDTH 9 0
BBX 6 9 1 0
BITMAP
F0
88
84
84
84
84
84
88
F0
ENDCHAR
STARTCHAR $69
ENCODING 69
SWIDTH 9000 0
DWIDTH 9 0
BBX 6 9 1 0
BITMAP
FC
80
80
80
F8
80
80
80
FC
ENDCHAR
STARTCHAR $70
ENCODING 70
SWIDTH 9000 0
DWIDTH 9 0
BBX 6 9 1 0
BITMAP
FC
80
80
80
F8
80
80
80
80
ENDCHAR
STARTCHAR $71
ENCODING 71
SWIDTH 9000 0
DWIDTH 9 0
BBX 6 9 1 0
BITMAP
78
84
80
80
9C
84
84
84
78
ENDCHAR
STARTCHAR $72
ENCODING 72
SWIDTH 9000 0
DWIDTH 9 0
BBX 6 9 1 0
BITMAP
84
84
84
84
FC
84
84
84
84
ENDCHAR
STARTCHAR $73
ENCODING 73
SWIDTH 9000 0
DWIDTH 9 0
BBX 5 9 2 0
BITMAP
F8
20
20
20
20
20
20
20
F8
ENDCHAR
STARTCHAR $74
ENCODING 74
SWIDTH 9000 0
DWIDTH 9 0
BBX 6 9 1 0
BITMAP
04
04
04
04
04
04
84
84
78
ENDCHAR
STARTCHAR $75
ENCODING 75
SWIDTH 9000 0
DWIDTH 9 0
BBX 6 9 1 0
BITMAP
84
88
90
A0
C0
A0
90
88
84
ENDCHAR
STARTCHAR $76
ENCODING 76
SWIDTH 9000 0
DWIDTH 9 0
BBX 6 9 1 0
BITMAP
80
80
80
80
80
80
80
80
FC
ENDCHAR
STARTCHAR $77
ENCODING 77
SWIDTH 9000 0
DWIDTH 9 0
BBX 7 9 1 0
BITMAP
82
C6
AA
92
82
82
82
82
82
ENDCHAR
STARTCHAR $78
ENCODING 78
SWIDTH 9000 0
DWIDTH 9 0
BBX 6 9 1 0
BITMAP
84
C4
A4
94
8C
84
84
84
84
ENDCHAR
STARTCHAR $79
ENCODING 79
SWIDTH 9000 0
DWIDTH 9 0
BBX 6 9 1 0
BITMAP
78
84
84
84
84
84
84
84
78
ENDCHAR
STARTCHAR $80
ENCODING 80
SWIDTH 9000 0
DWIDTH 9 0
BBX 6 9 1 0
BITMAP
F8
84
84
84
F8
80
80
80
80
ENDCHAR
STARTCHAR $81
ENCODING 81
SWIDTH 9000 0
DWIDTH 9 0
BBX 6 9 1 0
BITMAP
78
84
84
84
84
84
94
88
74
ENDCHAR
STARTCHAR $82
ENCODING 82
SWIDTH 9000 0
DWIDTH 9 0
BBX 6 9 1 0
BITMAP
F8
84
84
84
F8
84
84
84
84
ENDCHAR
STARTCHAR $83
ENCODING 83
SWIDTH 9000 0
DWIDTH 9 0
BBX 6 9 1 0
BITMAP
78
84
80
80
78
04
04
84
78
ENDCHAR
STARTCHAR $84
ENCODING 84
SWIDTH 9000 0
DWIDTH 9 0
BBX 7 9 1 0
BITMAP
FE
10
10
10
10
10
10
10
10
ENDCHAR
STARTCHAR $85
ENCODING 85
SWIDTH 9000 0
DWIDTH 9 0
BBX 6 9 1 0
BITMAP
84
84
84
84
84
84
84
84
78
ENDCHAR
STARTCHAR $86
ENCODING 86
SWIDTH 9000 0
DWIDTH 9 0
BBX 7 9 1 0
BITMAP
82
82
82
82
82
82
44
28
10
ENDCHAR
STARTCHAR $87
ENCODING 87
SWIDTH 9000 0
DWIDTH 9 0
BBX 7 9 1 0
BITMAP
82
82
82
82
82
92
AA
C6
82
ENDCHAR
STARTCHAR $88
ENCODING 88
SWIDTH 9000 0
DWIDTH 9 0
BBX 7 9 1 0
BITMAP
82
82
44
28
10
28
44
82
82
ENDCHAR
STARTCHAR $89
ENCODING 89
SWIDTH 9000 0
DWIDTH 9 0
BBX 7 9 1 0
BITMAP
82
82
44
28
10
10
10
10
10
ENDCHAR
STARTCHAR $90
ENCODING 90
SWIDTH 9000 0
DWIDTH 9 0
BBX 7 9 1 0
BITMAP
FE
02
04
08
10
20
40
80
FE
ENDCHAR
STARTCHAR $91
ENCODING 91
SWIDTH 9000 0
DWIDTH 9 0
BBX 3 11 3 -1
BITMAP
E0
80
80
80
80
80
80
80
80
80
E0
ENDCHAR
STARTCHAR $92
ENCODING 92
SWIDTH 9000 0
DWIDTH 9 0
BBX 6 10 1 -1
BITMAP
80
40
40
20
20
10
10
08
08
04
ENDCHAR
STARTCHAR $93
ENCODING 93
SWIDTH 9000 0
DWIDTH 9 0
BBX 3 11 2 -1
BITMAP
E0
20
20
20
20
20
20
20
20
20
E0
ENDCHAR
STARTCHAR $94
ENCODING 94
SWIDTH 9000 0
DWIDTH 9 0
BBX 5 3 2 5
BITMAP
20
50
88
ENDCHAR
STARTCHAR $95
ENCODING 95
SWIDTH 9000 0
DWIDTH 9 0
BBX 9 1 0 -1
BITMAP
FF80
ENDCHAR
STARTCHAR $96
ENCODING 96
SWIDTH 9000 0
DWIDTH 9 0
BBX 1 3 3 6
BITMAP
80
80
80
ENDCHAR
STARTCHAR $97
ENCODING 97
SWIDTH 9000 0
DWIDTH 9 0
BBX 6 6 1 0
BITMAP
78
84
7C
84
84
7C
ENDCHAR
STARTCHAR $98
ENCODING 98
SWIDTH 9000 0
DWIDTH 9 0
BBX 6 9 1 0
BITMAP
80
80
80
F8
84
84
84
84
F8
ENDCHAR
STARTCHAR $99
ENCODING 99
SWIDTH 9000 0
DWIDTH 9 0
BBX 6 6 1 0
BITMAP
78
84
80
80
84
78
ENDCHAR
STARTCHAR $100
ENCODING 100
SWIDTH 9000 0
DWIDTH 9 0
BBX 6 9 1 0
BITMAP
04
04
04
7C
84
84
84
84
7C
ENDCHAR
STARTCHAR $101
ENCODING 101
SWIDTH 9000 0
DWIDTH 9 0
BBX 6 6 1 0
BITMAP
78
84
FC
80
84
78
ENDCHAR
STARTCHAR $102
ENCODING 102
SWIDTH 9000 0
DWIDTH 9 0
BBX 5 9 1 0
BITMAP
18
20
20
F8
20
20
20
20
20
ENDCHAR
STARTCHAR $103
ENCODING 103
SWIDTH 9000 0
DWIDTH 9 0
BBX 6 9 1 -3
BITMAP
7C
84
84
84
84
7C
04
84
78
ENDCHAR
STARTCHAR $104
ENCODING 104
SWIDTH 9000 0
DWIDTH 9 0
BBX 6 9 1 0
BITMAP
80
80
80
F8
84
84
84
84
84
ENDCHAR
STARTCHAR $105
ENCODING 105
SWIDTH 9000 0
DWIDTH 9 0
BBX 3 9 3 0
BITMAP
40
40
00
C0
40
40
40
40
E0
ENDCHAR
STARTCHAR $106
ENCODING 106
SWIDTH 9000 0
DWIDTH 9 0
BBX 4 12 2 -3
BITMAP
10
10
00
30
10
10
10
10
10
10
20
C0
ENDCHAR
STARTCHAR $107
ENCODING 107
SWIDTH 9000 0
DWIDTH 9 0
BBX 5 9 1 0
BITMAP
80
80
80
90
A0
C0
A0
90
88
ENDCHAR
STARTCHAR $108
ENCODING 108
SWIDTH 9000 0
DWIDTH 9 0
BBX 3 9 3 0
BITMAP
80
80
80
80
80
80
80
80
60
ENDCHAR
STARTCHAR $109
ENCODING 109
SWIDTH 9000 0
DWIDTH 9 0
BBX 7 6 1 0
BITMAP
FC
92
92
92
92
92
ENDCHAR
STARTCHAR $110
ENCODING 110
SWIDTH 9000 0
DWIDTH 9 0
BBX 6 6 1 0
BITMAP
F8
84
84
84
84
84
ENDCHAR
STARTCHAR $111
ENCODING 111
SWIDTH 9000 0
DWIDTH 9 0
BBX 6 6 1 0
BITMAP
78
84
84
84
84
78
ENDCHAR
STARTCHAR $112
ENCODING 112
SWIDTH 9000 0
DWIDTH 9 0
BBX 6 9 1 -3
BITMAP
F8
84
84
84
84
F8
80
80
80
ENDCHAR
STARTCHAR $113
ENCODING 113
SWIDTH 9000 0
DWIDTH 9 0
BBX 6 9 1 -3
BITMAP
7C
84
84
84
84
7C
04
04
04
ENDCHAR
STARTCHAR $114
ENCODING 114
SWIDTH 9000 0
DWIDTH 9 0
BBX 5 6 2 0
BITMAP
F0
88
80
80
80
80
ENDCHAR
STARTCHAR $115
ENCODING 115
SWIDTH 9000 0
DWIDTH 9 0
BBX 6 6 1 0
BITMAP
78
84
78
04
84
78
ENDCHAR
STARTCHAR $116
ENCODING 116
SWIDTH 9000 0
DWIDTH 9 0
BBX 5 8 1 0
BITMAP
20
20
F8
20
20
20
20
18
ENDCHAR
STARTCHAR $117
ENCODING 117
SWIDTH 9000 0
DWIDTH 9 0
BBX 6 6 1 0
BITMAP
84
84
84
84
84
7C
ENDCHAR
STARTCHAR $118
ENCODING 118
SWIDTH 9000 0
DWIDTH 9 0
BBX 7 6 1 0
BITMAP
82
82
82
44
28
10
ENDCHAR
STARTCHAR $119
ENCODING 119
SWIDTH 9000 0
DWIDTH 9 0
BBX 7 6 1 0
BITMAP
82
82
92
AA
C6
82
ENDCHAR
STARTCHAR $120
ENCODING 120
SWIDTH 9000 0
DWIDTH 9 0
BBX 6 6 1 0
BITMAP
84
48
30
30
48
84
ENDCHAR
STARTCHAR $121
ENCODING 121
SWIDTH 9000 0
DWIDTH 9 0
BBX 6 9 1 -3
BITMAP
84
84
84
84
84
7C
04
84
78
ENDCHAR
STARTCHAR $122
ENCODING 122
SWIDTH 9000 0
DWIDTH 9 0
BBX 6 6 1 0
BITMAP
FC
08
10
20
40
FC
ENDCHAR
STARTCHAR $123
ENCODING 123
SWIDTH 9000 0
DWIDTH 9 0
BBX 5 11 2 -1
BITMAP
18
20
20
20
40
80
40
20
20
20
18
ENDCHAR
STARTCHAR $124
ENCODING 124
SWIDTH 9000 0
DWIDTH 9 0
BBX 1 11 4 -1
BITMAP
80
80
80
80
80
80
80
80
80
80
80
ENDCHAR
STARTCHAR $125
ENCODING 125
SWIDTH 9000 0
DWIDTH 9 0
BBX 5 11 2 -1
BITMAP
C0
20
20
20
10
08
10
20
20
20
C0
ENDCHAR
STARTCHAR $126
ENCODING 126
SWIDTH 9000 0
DWIDTH 9 0
BBX 6 2 1 3
BITMAP
64
98
ENDCHAR
STARTCHAR $127
ENCODING 127
SWIDTH 9000 0
DWIDTH 9 0
BBX 7 6 1 1
BITMAP
10
38
6C
C6
C6
FE
ENDCHAR
STARTCHAR $128
ENCODING -1
SWIDTH 9000 0
DWIDTH 9 0
BBX 6 12 1 -3
BITMAP
78
84
80
80
80
80
80
84
78
10
08
70
ENDCHAR
STARTCHAR $129
ENCODING -1
SWIDTH 9000 0
DWIDTH 9 0
BBX 6 9 1 0
BITMAP
48
00
00
84
84
84
84
84
7C
ENDCHAR
STARTCHAR $130
ENCODING -1
SWIDTH 9000 0
DWIDTH 9 0
BBX 6 9 1 0
BITMAP
10
20
00
78
84
FC
80
84
78
ENDCHAR
STARTCHAR $131
ENCODING -1
SWIDTH 9000 0
DWIDTH 9 0
BBX 6 9 1 0
BITMAP
30
48
00
78
84
7C
84
84
7C
ENDCHAR
STARTCHAR $132
ENCODING -1
SWIDTH 9000 0
DWIDTH 9 0
BBX 6 9 1 0
BITMAP
48
00
00
78
84
7C
84
84
7C
ENDCHAR
STARTCHAR $133
ENCODING -1
SWIDTH 9000 0
DWIDTH 9 0
BBX 6 9 1 0
BITMAP
20
10
00
78
84
7C
84
84
7C
ENDCHAR
STARTCHAR $134
ENCODING -1
SWIDTH 9000 0
DWIDTH 9 0
BBX 6 10 1 0
BITMAP
30
48
30
00
78
84
7C
84
84
7C
ENDCHAR
STARTCHAR $135
ENCODING -1
SWIDTH 9000 0
DWIDTH 9 0
BBX 6 9 1 -3
BITMAP
78
84
80
80
84
78
10
08
30
ENDCHAR
STARTCHAR $136
ENCODING -1
SWIDTH 9000 0
DWIDTH 9 0
BBX 6 9 1 0
BITMAP
30
48
00
78
84
FC
80
84
78
ENDCHAR
STARTCHAR $137
ENCODING -1
SWIDTH 9000 0
DWIDTH 9 0
BBX 6 9 1 0
BITMAP
48
00
00
78
84
FC
80
84
78
ENDCHAR
STARTCHAR $138
ENCODING -1
SWIDTH 9000 0
DWIDTH 9 0
BBX 6 9 1 0
BITMAP
20
10
00
78
84
FC
80
84
78
ENDCHAR
STARTCHAR $139
ENCODING -1
SWIDTH 9000 0
DWIDTH 9 0
BBX 4 9 2 0
BITMAP
90
00
00
60
20
20
20
20
70
ENDCHAR
STARTCHAR $140
ENCODING -1
SWIDTH 9000 0
DWIDTH 9 0
BBX 3 9 3 0
BITMAP
40
A0
00
C0
40
40
40
40
E0
ENDCHAR
STARTCHAR $141
ENCODING -1
SWIDTH 9000 0
DWIDTH 9 0
BBX 3 9 3 0
BITMAP
80
40
00
C0
40
40
40
40
E0
ENDCHAR
STARTCHAR $142
ENCODING -1
SWIDTH 9000 0
DWIDTH 9 0
BBX 7 11 1 0
BITMAP
44
00
10
28
44
82
FE
82
82
82
82
ENDCHAR
STARTCHAR $143
ENCODING -1
SWIDTH 9000 0
DWIDTH 9 0
BBX 7 11 1 0
BITMAP
10
28
10
28
44
82
FE
82
82
82
82
ENDCHAR
STARTCHAR $144
ENCODING -1
SWIDTH 9000 0
DWIDTH 9 0
BBX 6 11 1 0
BITMAP
10
20
FC
80
80
80
F8
80
80
80
FC
ENDCHAR
STARTCHAR $145
ENCODING -1
SWIDTH 9000 0
DWIDTH 9 0
BBX 7 6 1 0
BITMAP
7C
92
7E
90
92
7C
ENDCHAR
STARTCHAR $146
ENCODING -1
SWIDTH 9000 0
DWIDTH 9 0
BBX 8 9 1 0
BITMAP
1F
28
48
88
FF
88
88
88
8F
ENDCHAR
STARTCHAR $147
ENCODING -1
SWIDTH 9000 0
DWIDTH 9 0
BBX 6 9 1 0
BITMAP
30
48
00
78
84
84
84
84
78
ENDCHAR
STARTCHAR $148
ENCODING -1
SWIDTH 9000 0
DWIDTH 9 0
BBX 6 9 1 0
BITMAP
48
00
00
78
84
84
84
84
78
ENDCHAR
STARTCHAR $149
ENCODING -1
SWIDTH 9000 0
DWIDTH 9 0
BBX 6 9 1 0
BITMAP
20
10
00
78
84
84
84
84
78
ENDCHAR
STARTCHAR $150
ENCODING -1
SWIDTH 9000 0
DWIDTH 9 0
BBX 6 10 1 0
BITMAP
30
48
00
00
84
84
84
84
84
7C
ENDCHAR
STARTCHAR $151
ENCODING -1
SWIDTH 9000 0
DWIDTH 9 0
BBX 6 9 1 0
BITMAP
20
10
00
84
84
84
84
84
7C
ENDCHAR
STARTCHAR $152
ENCODING -1
SWIDTH 9000 0
DWIDTH 9 0
BBX 6 12 1 -3
BITMAP
44
00
00
84
84
84
84
84
7C
04
84
78
ENDCHAR
STARTCHAR $153
ENCODING -1
SWIDTH 9000 0
DWIDTH 9 0
BBX 6 11 1 0
BITMAP
48
00
78
84
84
84
84
84
84
84
78
ENDCHAR
STARTCHAR $154
ENCODING -1
SWIDTH 9000 0
DWIDTH 9 0
BBX 6 11 1 0
BITMAP
48
00
84
84
84
84
84
84
84
84
78
ENDCHAR
STARTCHAR $155
ENCODING -1
SWIDTH 9000 0
DWIDTH 9 0
BBX 6 8 1 -1
BITMAP
10
38
44
80
80
44
38
10
ENDCHAR
STARTCHAR $156
ENCODING -1
SWIDTH 9000 0
DWIDTH 9 0
BBX 6 9 1 0
BITMAP
38
44
40
40
F0
40
40
64
98
ENDCHAR
STARTCHAR $157
ENCODING -1
SWIDTH 9000 0
DWIDTH 9 0
BBX 7 9 1 0
BITMAP
82
82
44
28
FE
10
FE
10
10
ENDCHAR
STARTCHAR $158
ENCODING -1
SWIDTH 9000 0
DWIDTH 9 0
BBX 6 9 1 0
BITMAP
F0
88
88
F0
88
9C
88
88
88
ENDCHAR
STARTCHAR $159
ENCODING -1
SWIDTH 9000 0
DWIDTH 9 0
BBX 5 10 1 -1
BITMAP
18
20
20
20
F8
20
20
20
20
C0
ENDCHAR
STARTCHAR $160
ENCODING -1
SWIDTH 9000 0
DWIDTH 9 0
BBX 6 9 1 0
BITMAP
08
10
00
78
84
7C
84
84
7C
ENDCHAR
STARTCHAR $161
ENCODING -1
SWIDTH 9000 0
DWIDTH 9 0
BBX 3 9 3 0
BITMAP
40
80
00
C0
40
40
40
40
E0
ENDCHAR
STARTCHAR $162
ENCODING -1
SWIDTH 9000 0
DWIDTH 9 0
BBX 6 9 1 0
BITMAP
10
20
00
78
84
84
84
84
78
ENDCHAR
STARTCHAR $163
ENCODING -1
SWIDTH 9000 0
DWIDTH 9 0
BBX 6 9 1 0
BITMAP
08
10
00
84
84
84
84
84
7C
ENDCHAR
STARTCHAR $164
ENCODING -1
SWIDTH 9000 0
DWIDTH 9 0
BBX 6 9 1 0
BITMAP
64
98
00
F8
84
84
84
84
84
ENDCHAR
STARTCHAR $165
ENCODING -1
SWIDTH 9000 0
DWIDTH 9 0
BBX 6 11 1 0
BITMAP
64
98
84
C4
A4
94
8C
84
84
84
84
ENDCHAR
STARTCHAR $166
ENCODING -1
SWIDTH 9000 0
DWIDTH 9 0
BBX 6 7 1 3
BITMAP
70
88
78
88
78
00
FC
ENDCHAR
STARTCHAR $167
ENCODING -1
SWIDTH 9000 0
DWIDTH 9 0
BBX 5 7 2 3
BITMAP
70
88
88
88
70
00
F8
ENDCHAR
STARTCHAR $168
ENCODING -1
SWIDTH 9000 0
DWIDTH 9 0
BBX 5 9 2 0
BITMAP
20
20
00
20
40
80
80
88
70
ENDCHAR
STARTCHAR $169
ENCODING -1
SWIDTH 9000 0
DWIDTH 9 0
BBX 5 4 2 2
BITMAP
F8
80
80
80
ENDCHAR
STARTCHAR $170
ENCODING -1
SWIDTH 9000 0
DWIDTH 9 0
BBX 5 4 1 2
BITMAP
F8
08
08
08
ENDCHAR
STARTCHAR $171
ENCODING -1
SWIDTH 9000 0
DWIDTH 9 0
BBX 8 8 1 0
BITMAP
41
C2
44
48
54
2A
44
8E
ENDCHAR
STARTCHAR $172
ENCODING -1
SWIDTH 9000 0
DWIDTH 9 0
BBX 8 8 1 0
BITMAP
41
C2
44
4A
56
2A
5E
82
ENDCHAR
STARTCHAR $173
ENCODING -1
SWIDTH 9000 0
DWIDTH 9 0
BBX 1 9 3 0
BITMAP
80
80
00
80
80
80
80
80
80
ENDCHAR
STARTCHAR $174
ENCODING -1
SWIDTH 9000 0
DWIDTH 9 0
BBX 6 5 1 1
BITMAP
24
48
90
48
24
ENDCHAR
STARTCHAR $175
ENCODING -1
SWIDTH 9000 0
DWIDTH 9 0
BBX 6 5 2 1
BITMAP
90
48
24
48
90
ENDCHAR
STARTCHAR $176
ENCODING -1
SWIDTH 9000 0
DWIDTH 9 0
BBX 7 11 1 -1
BITMAP
FE
82
82
82
82
82
82
82
82
82
FE
ENDCHAR
STARTCHAR $177
ENCODING -1
SWIDTH 9000 0
DWIDTH 9 0
BBX 7 11 1 -1
BITMAP
FE
82
82
82
82
82
82
82
82
82
FE
ENDCHAR
STARTCHAR $178
ENCODING -1
SWIDTH 9000 0
DWIDTH 9 0
BBX 7 11 1 -1
BITMAP
FE
82
82
82
82
82
82
82
82
82
FE
ENDCHAR
STARTCHAR $179
ENCODING -1
SWIDTH 9000 0
DWIDTH 9 0
BBX 7 11 1 -1
BITMAP
FE
82
82
82
82
82
82
82
82
82
FE
ENDCHAR
STARTCHAR $180
ENCODING -1
SWIDTH 9000 0
DWIDTH 9 0
BBX 7 11 1 -1
BITMAP
FE
82
82
82
82
82
82
82
82
82
FE
ENDCHAR
STARTCHAR $181
ENCODING -1
SWIDTH 9000 0
DWIDTH 9 0
BBX 7 11 1 -1
BITMAP
FE
82
82
82
82
82
82
82
82
82
FE
ENDCHAR
STARTCHAR $182
ENCODING -1
SWIDTH 9000 0
DWIDTH 9 0
BBX 7 11 1 -1
BITMAP
FE
82
82
82
82
82
82
82
82
82
FE
ENDCHAR
STARTCHAR $183
ENCODING -1
SWIDTH 9000 0
DWIDTH 9 0
BBX 7 11 1 -1
BITMAP
FE
82
82
82
82
82
82
82
82
82
FE
ENDCHAR
STARTCHAR $184
ENCODING -1
SWIDTH 9000 0
DWIDTH 9 0
BBX 7 11 1 -1
BITMAP
FE
82
82
82
82
82
82
82
82
82
FE
ENDCHAR
STARTCHAR $185
ENCODING -1
SWIDTH 9000 0
DWIDTH 9 0
BBX 7 11 1 -1
BITMAP
FE
82
82
82
82
82
82
82
82
82
FE
ENDCHAR
STARTCHAR $186
ENCODING -1
SWIDTH 9000 0
DWIDTH 9 0
BBX 7 11 1 -1
BITMAP
FE
82
82
82
82
82
82
82
82
82
FE
ENDCHAR
STARTCHAR $187
ENCODING -1
SWIDTH 9000 0
DWIDTH 9 0
BBX 7 11 1 -1
BITMAP
FE
82
82
82
82
82
82
82
82
82
FE
ENDCHAR
STARTCHAR $188
ENCODING -1
SWIDTH 9000 0
DWIDTH 9 0
BBX 7 11 1 -1
BITMAP
FE
82
82
82
82
82
82
82
82
82
FE
ENDCHAR
STARTCHAR $189
ENCODING -1
SWIDTH 9000 0
DWIDTH 9 0
BBX 7 11 1 -1
BITMAP
FE
82
82
82
82
82
82
82
82
82
FE
ENDCHAR
STARTCHAR $190
ENCODING -1
SWIDTH 9000 0
DWIDTH 9 0
BBX 7 11 1 -1
BITMAP
FE
82
82
82
82
82
82
82
82
82
FE
ENDCHAR
STARTCHAR $191
ENCODING -1
SWIDTH 9000 0
DWIDTH 9 0
BBX 7 11 1 -1
BITMAP
FE
82
82
82
82
82
82
82
82
82
FE
ENDCHAR
STARTCHAR $192
ENCODING -1
SWIDTH 9000 0
DWIDTH 9 0
BBX 7 11 1 -1
BITMAP
FE
82
82
82
82
82
82
82
82
82
FE
ENDCHAR
STARTCHAR $193
ENCODING -1
SWIDTH 9000 0
DWIDTH 9 0
BBX 7 11 1 -1
BITMAP
FE
82
82
82
82
82
82
82
82
82
FE
ENDCHAR
STARTCHAR $194
ENCODING -1
SWIDTH 9000 0
DWIDTH 9 0
BBX 7 11 1 -1
BITMAP
FE
82
82
82
82
82
82
82
82
82
FE
ENDCHAR
STARTCHAR $195
ENCODING -1
SWIDTH 9000 0
DWIDTH 9 0
BBX 7 11 1 -1
BITMAP
FE
82
82
82
82
82
82
82
82
82
FE
ENDCHAR
STARTCHAR $196
ENCODING -1
SWIDTH 9000 0
DWIDTH 9 0
BBX 7 11 1 -1
BITMAP
FE
82
82
82
82
82
82
82
82
82
FE
ENDCHAR
STARTCHAR $197
ENCODING -1
SWIDTH 9000 0
DWIDTH 9 0
BBX 7 11 1 -1
BITMAP
FE
82
82
82
82
82
82
82
82
82
FE
ENDCHAR
STARTCHAR $198
ENCODING -1
SWIDTH 9000 0
DWIDTH 9 0
BBX 7 11 1 -1
BITMAP
FE
82
82
82
82
82
82
82
82
82
FE
ENDCHAR
STARTCHAR $199
ENCODING -1
SWIDTH 9000 0
DWIDTH 9 0
BBX 7 11 1 -1
BITMAP
FE
82
82
82
82
82
82
82
82
82
FE
ENDCHAR
STARTCHAR $200
ENCODING -1
SWIDTH 9000 0
DWIDTH 9 0
BBX 7 11 1 -1
BITMAP
FE
82
82
82
82
82
82
82
82
82
FE
ENDCHAR
STARTCHAR $201
ENCODING -1
SWIDTH 9000 0
DWIDTH 9 0
BBX 7 11 1 -1
BITMAP
FE
82
82
82
82
82
82
82
82
82
FE
ENDCHAR
STARTCHAR $202
ENCODING -1
SWIDTH 9000 0
DWIDTH 9 0
BBX 7 11 1 -1
BITMAP
FE
82
82
82
82
82
82
82
82
82
FE
ENDCHAR
STARTCHAR $203
ENCODING -1
SWIDTH 9000 0
DWIDTH 9 0
BBX 7 11 1 -1
BITMAP
FE
82
82
82
82
82
82
82
82
82
FE
ENDCHAR
STARTCHAR $204
ENCODING -1
SWIDTH 9000 0
DWIDTH 9 0
BBX 7 11 1 -1
BITMAP
FE
82
82
82
82
82
82
82
82
82
FE
ENDCHAR
STARTCHAR $205
ENCODING -1
SWIDTH 9000 0
DWIDTH 9 0
BBX 7 11 1 -1
BITMAP
FE
82
82
82
82
82
82
82
82
82
FE
ENDCHAR
STARTCHAR $206
ENCODING -1
SWIDTH 9000 0
DWIDTH 9 0
BBX 7 11 1 -1
BITMAP
FE
82
82
82
82
82
82
82
82
82
FE
ENDCHAR
STARTCHAR $207
ENCODING -1
SWIDTH 9000 0
DWIDTH 9 0
BBX 7 11 1 -1
BITMAP
FE
82
82
82
82
82
82
82
82
82
FE
ENDCHAR
STARTCHAR $208
ENCODING -1
SWIDTH 9000 0
DWIDTH 9 0
BBX 7 11 1 -1
BITMAP
FE
82
82
82
82
82
82
82
82
82
FE
ENDCHAR
STARTCHAR $209
ENCODING -1
SWIDTH 9000 0
DWIDTH 9 0
BBX 7 11 1 -1
BITMAP
FE
82
82
82
82
82
82
82
82
82
FE
ENDCHAR
STARTCHAR $210
ENCODING -1
SWIDTH 9000 0
DWIDTH 9 0
BBX 7 11 1 -1
BITMAP
FE
82
82
82
82
82
82
82
82
82
FE
ENDCHAR
STARTCHAR $211
ENCODING -1
SWIDTH 9000 0
DWIDTH 9 0
BBX 7 11 1 -1
BITMAP
FE
82
82
82
82
82
82
82
82
82
FE
ENDCHAR
STARTCHAR $212
ENCODING -1
SWIDTH 9000 0
DWIDTH 9 0
BBX 7 11 1 -1
BITMAP
FE
82
82
82
82
82
82
82
82
82
FE
ENDCHAR
STARTCHAR $213
ENCODING -1
SWIDTH 9000 0
DWIDTH 9 0
BBX 7 11 1 -1
BITMAP
FE
82
82
82
82
82
82
82
82
82
FE
ENDCHAR
STARTCHAR $214
ENCODING -1
SWIDTH 9000 0
DWIDTH 9 0
BBX 7 11 1 -1
BITMAP
FE
82
82
82
82
82
82
82
82
82
FE
ENDCHAR
STARTCHAR $215
ENCODING -1
SWIDTH 9000 0
DWIDTH 9 0
BBX 7 11 1 -1
BITMAP
FE
82
82
82
82
82
82
82
82
82
FE
ENDCHAR
STARTCHAR $216
ENCODING -1
SWIDTH 9000 0
DWIDTH 9 0
BBX 7 11 1 -1
BITMAP
FE
82
82
82
82
82
82
82
82
82
FE
ENDCHAR
STARTCHAR $217
ENCODING -1
SWIDTH 9000 0
DWIDTH 9 0
BBX 7 11 1 -1
BITMAP
FE
82
82
82
82
82
82
82
82
82
FE
ENDCHAR
STARTCHAR $218
ENCODING -1
SWIDTH 9000 0
DWIDTH 9 0
BBX 7 11 1 -1
BITMAP
FE
82
82
82
82
82
82
82
82
82
FE
ENDCHAR
STARTCHAR $219
ENCODING -1
SWIDTH 9000 0
DWIDTH 9 0
BBX 7 11 1 -1
BITMAP
FE
82
82
82
82
82
82
82
82
82
FE
ENDCHAR
STARTCHAR $220
ENCODING -1
SWIDTH 9000 0
DWIDTH 9 0
BBX 7 11 1 -1
BITMAP
FE
82
82
82
82
82
82
82
82
82
FE
ENDCHAR
STARTCHAR $221
ENCODING -1
SWIDTH 9000 0
DWIDTH 9 0
BBX 7 11 1 -1
BITMAP
FE
82
82
82
82
82
82
82
82
82
FE
ENDCHAR
STARTCHAR $222
ENCODING -1
SWIDTH 9000 0
DWIDTH 9 0
BBX 7 11 1 -1
BITMAP
FE
82
82
82
82
82
82
82
82
82
FE
ENDCHAR
STARTCHAR $223
ENCODING -1
SWIDTH 9000 0
DWIDTH 9 0
BBX 7 11 1 -1
BITMAP
FE
82
82
82
82
82
82
82
82
82
FE
ENDCHAR
STARTCHAR $224
ENCODING -1
SWIDTH 9000 0
DWIDTH 9 0
BBX 7 6 1 0
BITMAP
62
94
88
88
94
62
ENDCHAR
STARTCHAR $225
ENCODING -1
SWIDTH 9000 0
DWIDTH 9 0
BBX 6 9 1 0
BITMAP
F0
88
88
88
90
88
84
A4
98
ENDCHAR
STARTCHAR $226
ENCODING -1
SWIDTH 9000 0
DWIDTH 9 0
BBX 6 9 1 0
BITMAP
FC
84
80
80
80
80
80
80
80
ENDCHAR
STARTCHAR $227
ENCODING -1
SWIDTH 9000 0
DWIDTH 9 0
BBX 6 6 1 1
BITMAP
FC
48
48
48
48
88
ENDCHAR
STARTCHAR $228
ENCODING -1
SWIDTH 9000 0
DWIDTH 9 0
BBX 6 9 1 0
BITMAP
FC
44
20
10
08
10
20
44
FC
ENDCHAR
STARTCHAR $229
ENCODING -1
SWIDTH 9000 0
DWIDTH 9 0
BBX 6 6 1 0
BITMAP
7C
90
90
90
90
60
ENDCHAR
STARTCHAR $230
ENCODING -1
SWIDTH 9000 0
DWIDTH 9 0
BBX 6 9 0 -3
BITMAP
44
44
44
44
44
78
40
40
80
ENDCHAR
STARTCHAR $231
ENCODING -1
SWIDTH 9000 0
DWIDTH 9 0
BBX 6 7 1 -1
BITMAP
64
98
10
10
10
10
10
ENDCHAR
STARTCHAR $232
ENCODING -1
SWIDTH 9000 0
DWIDTH 9 0
BBX 5 11 1 -1
BITMAP
F8
20
20
70
88
88
88
70
20
20
F8
ENDCHAR
STARTCHAR $233
ENCODING -1
SWIDTH 9000 0
DWIDTH 9 0
BBX 6 9 1 0
BITMAP
30
48
84
84
FC
84
84
48
30
ENDCHAR
STARTCHAR $234
ENCODING -1
SWIDTH 9000 0
DWIDTH 9 0
BBX 7 8 1 0
BITMAP
38
44
82
82
44
28
28
6C
ENDCHAR
STARTCHAR $235
ENCODING -1
SWIDTH 9000 0
DWIDTH 9 0
BBX 4 9 2 0
BITMAP
F0
40
20
10
70
90
90
90
60
ENDCHAR
STARTCHAR $236
ENCODING -1
SWIDTH 9000 0
DWIDTH 9 0
BBX 7 4 1 2
BITMAP
6C
92
92
6C
ENDCHAR
STARTCHAR $237
ENCODING -1
SWIDTH 9000 0
DWIDTH 9 0
BBX 8 9 1 -1
BITMAP
01
02
3C
46
5A
62
3C
40
80
ENDCHAR
STARTCHAR $238
ENCODING -1
SWIDTH 9000 0
DWIDTH 9 0
BBX 5 9 2 0
BITMAP
38
40
80
80
F0
80
80
40
38
ENDCHAR
STARTCHAR $239
ENCODING -1
SWIDTH 9000 0
DWIDTH 9 0
BBX 6 8 1 0
BITMAP
78
84
84
84
84
84
84
84
ENDCHAR
STARTCHAR $240
ENCODING -1
SWIDTH 9000 0
DWIDTH 9 0
BBX 5 5 1 1
BITMAP
F8
00
F8
00
F8
ENDCHAR
STARTCHAR $241
ENCODING -1
SWIDTH 9000 0
DWIDTH 9 0
BBX 5 7 1 0
BITMAP
20
20
F8
20
20
00
F8
ENDCHAR
STARTCHAR $242
ENCODING -1
SWIDTH 9000 0
DWIDTH 9 0
BBX 5 9 1 0
BITMAP
80
40
20
10
20
40
80
00
F8
ENDCHAR
STARTCHAR $243
ENCODING -1
SWIDTH 9000 0
DWIDTH 9 0
BBX 5 9 1 0
BITMAP
08
10
20
40
20
10
08
00
F8
ENDCHAR
STARTCHAR $244
ENCODING -1
SWIDTH 9000 0
DWIDTH 9 0
BBX 5 12 3 -3
BITMAP
70
D8
D8
C0
C0
C0
C0
C0
C0
C0
C0
C0
ENDCHAR
STARTCHAR $245
ENCODING -1
SWIDTH 9000 0
DWIDTH 9 0
BBX 5 11 0 0
BITMAP
18
18
18
18
18
18
18
18
D8
D8
70
ENDCHAR
STARTCHAR $246
ENCODING -1
SWIDTH 9000 0
DWIDTH 9 0
BBX 5 7 1 0
BITMAP
20
00
00
F8
00
00
20
ENDCHAR
STARTCHAR $247
ENCODING -1
SWIDTH 9000 0
DWIDTH 9 0
BBX 6 5 1 1
BITMAP
64
98
00
64
98
ENDCHAR
STARTCHAR $248
ENCODING -1
SWIDTH 9000 0
DWIDTH 9 0
BBX 4 4 2 5
BITMAP
60
90
90
60
ENDCHAR
STARTCHAR $249
ENCODING -1
SWIDTH 9000 0
DWIDTH 9 0
BBX 2 2 3 3
BITMAP
C0
C0
ENDCHAR
STARTCHAR $250
ENCODING -1
SWIDTH 9000 0
DWIDTH 9 0
BBX 2 1 3 3
BITMAP
C0
ENDCHAR
STARTCHAR $251
ENCODING -1
SWIDTH 9000 0
DWIDTH 9 0
BBX 8 11 1 0
BITMAP
0F
08
08
08
08
08
88
48
28
18
08
ENDCHAR
STARTCHAR $252
ENCODING -1
SWIDTH 9000 0
DWIDTH 9 0
BBX 5 6 1 5
BITMAP
F0
88
88
88
88
88
ENDCHAR
STARTCHAR $253
ENCODING -1
SWIDTH 9000 0
DWIDTH 9 0
BBX 5 6 1 5
BITMAP
70
88
10
20
40
F8
ENDCHAR
STARTCHAR $254
ENCODING -1
SWIDTH 9000 0
DWIDTH 9 0
BBX 4 6 2 1
BITMAP
F0
F0
F0
F0
F0
F0
ENDCHAR
STARTCHAR $255
ENCODING -1
SWIDTH 9000 0
DWIDTH 9 0
BBX 1 1 8 -3
BITMAP
00
ENDCHAR
ENDFONT
